<?xml version="1.0" encoding="UTF-8" standalone="no"?>
<!-- (c) ammap.com | SVG map of Italy - High -->

<svg
   version="1.1"
   id="svg1"
   sodipodi:docname="italyHigh_02.svg"
   inkscape:version="1.3.2 (091e20e, 2023-11-25)"
   xmlns:inkscape="http://www.inkscape.org/namespaces/inkscape"
   xmlns:sodipodi="http://sodipodi.sourceforge.net/DTD/sodipodi-0.dtd"
   xmlns="http://www.w3.org/2000/svg"
   xmlns:svg="http://www.w3.org/2000/svg"
   xmlns:amcharts="http://amcharts.com/ammap">
   
  <defs
     id="defs1">
    <style
       type="text/css"
       id="style1">
			.land
			{
				fill:rgb(204, 204, 204);
				fill-opacity: 1;
				stroke:white;
				stroke-opacity: 1;
				stroke-width:0.5;
			}
		</style>
    <amcharts:ammap
       projection="mercator"
       leftLongitude="6.624486"
       topLatitude="47.092916"
       rightLongitude="18.521301"
       bottomLatitude="35.490303" />
    <!-- All areas are listed in the line below. You can use this list in your script. -->
    <!--{id:"VA"},{id:"SM"},{id:"FR-H"},{id:"MT"},{id:"IT_65"},{id:"IT-77"},{id:"IT-78"},{id:"IT-72"},{id:"IT-45"},{id:"IT-36"},{id:"IT-62"},{id:"IT-42"},{id:"IT-25"},{id:"IT-57"},{id:"IT-67"},{id:"IT-21"},{id:"IT-75"},{id:"IT-88"},{id:"IT-82"},{id:"IT-52"},{id:"IT-32"},{id:"IT-55"},{id:"IT-23"},{id:"IT-34"}-->
  </defs>
  <g
     id="g1"
     transform="translate(-167.58619,-624.13792)">
    <path
       id="IT-82"
       title="Sicilia"
       class="land"
       d="m 302.68,789.79 4.91,0.51 0.32,1.67 -5.98,-1.61 z m -29.42,-82.98 2.34,1.2 0.6,-0.37 2.01,1.7 0.12,2.36 -1.41,1.66 -1.88,-0.13 -3.32,-4.07 0.09,-1.56 z m 25.2,-64.48 -0.94,-3.28 1.32,-0.71 z m -7.1,-7.16 0.79,1.49 1.13,-0.41 1.09,0.78 -0.01,1.15 -0.73,0.18 -0.94,-1.02 -2.46,0.28 -0.83,-1.4 z m -12.51,-2.44 1.33,2.86 -2.49,-0.75 -0.7,-2.16 z m 179.1,-20 2.42,1.62 2.74,0.66 -2.76,0.76 -1.51,1.25 -0.77,2.89 0.84,-0.17 -4.12,7.59 -9.76,12.73 -0.03,1.65 -1.66,1.13 0.2,0.92 -3.3,4.26 -0.38,1.12 0.73,1.72 -1.02,3.58 -1.22,1.56 0.07,3.52 -3.12,2.95 -1.54,2.87 0.59,10.6 3.34,2.07 1.51,0.38 0.68,-0.67 2.64,3.23 -0.55,0.76 -0.95,-0.66 -0.19,1.67 -0.46,-1.87 -1.15,0.4 -0.33,3.21 1,2.34 1.37,-0.45 0.57,0.83 -0.79,-0.33 -0.38,0.56 0.67,1.63 1.43,0.81 1.74,-0.08 0.1,3.06 -1.08,-0.41 -0.09,1.59 0.7,0.44 0.97,-0.57 1.44,2.49 -1.79,-0.8 -1.29,0.52 -0.73,2.16 -2.68,0.64 -2.89,3.19 -2.96,7.3 2.31,7.29 -0.46,1.15 -0.81,-0.5 -1.78,1.69 -3.2,-3.39 -3.09,0.56 -2.25,-1.92 -1.86,-0.48 -4.95,1.71 -1.93,-1.06 -2.73,-0.01 -2.69,-2.55 -2.52,-1 -4.87,-0.63 -1.77,-1.91 -0.82,-3.48 -3.21,-5.76 -6.02,-6.1 -4.99,-2.35 -4.91,-1.09 -5.26,0.12 -3.2,0.85 -1.51,-0.43 -2.7,-2.75 -3.69,-0.33 -4.62,-2.86 -0.95,-2.12 -4.47,-3.67 -1.52,0.39 -0.76,-0.84 -3.1,-0.09 -2.41,-2.52 -4.08,-2.02 -1.32,-1.57 -1.28,-0.09 -1.06,-2.39 -4.43,-4.3 -4.56,-0.77 -2.91,0.69 -2.96,-4.45 -2.3,-0.79 -7.06,-0.25 -5.37,1.33 -3.42,-5.2 -2.17,-1.38 -2.32,0.15 -2.22,-2.57 -0.19,-2.89 -2.44,-3.67 1.95,-1.12 1.14,-3.61 -1.42,-2.15 2.07,-2.9 -0.2,-2.01 1.24,-0.55 -1.48,-1.6 1.51,-0.38 2.66,-3.02 1.69,0.31 1.79,-0.71 1.21,-1.21 -0.12,-1.12 2.58,0.1 1.35,-1.95 -1.11,-2.19 0.81,-1.06 0.34,0.85 1.58,-0.18 0.05,1.81 1.08,1.06 -0.04,1.6 1.13,2.01 4.56,3.53 4.5,-1.24 4.58,-2.85 -1.28,-3.3 0.98,-0.23 0.66,-1.25 -0.4,-0.68 1.62,-1.37 4.26,1.51 2.11,-0.86 0.44,-1.36 1.75,0.26 2.18,-1.6 0.66,1.68 1.87,1.12 0.51,2.15 -0.74,1.14 1.05,1.47 3.29,0.92 2.25,-0.55 0.89,-1.12 1.49,0.42 0.03,3 1.55,1.78 7.44,4.02 2.78,0.43 4.93,-1.34 4.32,-2.55 3.86,-0.76 2.24,1.48 2.17,0.23 1.89,-0.96 7.21,1.44 4.38,-0.57 2.76,-1.55 2.72,0.41 8.22,-2.63 5.6,-5.98 2.16,0.91 5.12,-1.36 1.23,-1.26 2.9,2.55 3.78,0.01 0.84,1.58 1.96,0.4 3.89,-2.14 2.25,-2.55 1.14,-3.18 -0.87,-1.83 0.84,-0.06 0.7,1.53 -0.54,2.11 2.25,0.63 5.74,-1.57 6.3,-4.25 z m -30.68,-7.75 1.89,1.45 0.3,1.71 -1.04,0.18 -1.7,-1.09 -0.57,-1.83 1.05,-1.35 0.51,0.5 z m 0.11,-6.72 0.02,1.94 0.91,0.65 -1.28,0.42 -0.1,2.34 -2.89,-3.04 0.83,-2.18 z m -30.78,-2.14 -0.06,1.42 -0.87,0.05 -0.12,-1.15 z m 23.55,-1.87 2.57,0.12 -0.03,2.87 -0.79,0.18 -3.07,-1.76 0.55,-1.42 z m -13.99,-0.14 1.42,0.28 0.88,1.66 -2.03,-0.2 -0.73,-1.18 z m 27.06,-3.89 -0.09,1.03 -0.93,0.31 0.14,-1.2 z m -96.48,-4.47 0.43,0.29 -0.74,0.86 -1.71,0.15 0.35,-1.22 1.03,-0.54 z m 104.15,-6.35 0.89,0.66 -1.53,1.91 -1.31,-1.3 z" />
  </g>
</svg>
